# xmcd
#
# Track frame offsets:
#	150
#	18616
#	38479
#	56203
#	75325
#	93019
#	111161
#	130261
#	148089
#	164779
#	184362
#	201599
#	218549
#	233121
#	252000
#
# Disc length: 3573 seconds
#
# Revision: 1
# Processed by: cddbd v1.5.1PL2 Copyright (c) Steve Scherf et al.
# Submitted via: audiograbber 1.83.01
#
DISCID=d20df30f
DTITLE=Various Artist - SC8636
DYEAR=1900
DGENRE=Country
TTITLE0=Little Texas - What Might Have Been
TTITLE1=Lonestar - Come Cryin' To Me
TTITLE2=Sons Of The Dessert - What About You
TTITLE3=Lonestar - Amazed
TTITLE4=Little Texas - Kick A Little
TTITLE5=Sons Of The Desert - Albuquerque
TTITLE6=Little Texas - God Blessed Texas
TTITLE7=Little Texas - You and Forever and Me
TTITLE8=Lonestar - What About Now
TTITLE9=Little Texas - My Love
TTITLE10=Sons Of The Desert - Change
TTITLE11=Lonestar - Smile
TTITLE12=Lonestar - No News
TTITLE13=Sons Of The Desert - Leaving October
TTITLE14=Sons Of The Desert - Whatever Comes First
EXTD=
EXTT0=
EXTT1=
EXTT2=
EXTT3=
EXTT4=
EXTT5=
EXTT6=
EXTT7=
EXTT8=
EXTT9=
EXTT10=
EXTT11=
EXTT12=
EXTT13=
EXTT14=
PLAYORDER=
